<?xml version="1.0" encoding="utf-8"?>
<!-- Generator: Adobe Illustrator 22.1.0, SVG Export Plug-In . SVG Version: 6.00 Build 0)  -->
<svg version="1.1" id="Layer_2" xmlns="http://www.w3.org/2000/svg" xmlns:xlink="http://www.w3.org/1999/xlink" x="0px" y="0px"
	 width="208.6px" height="52px" viewBox="0 0 208.6 52" style="enable-background:new 0 0 208.6 52;" xml:space="preserve">
<style type="text/css">
	.st0{fill:#666666;}
</style>
<g>
	<path class="st0" d="M4.1,9.8h16v2.8h-13v8h12.1v2.8H7.1v9h13.6v2.8H4.1V9.8z"/>
	<path class="st0" d="M29.6,26.2l-6-7.8h3.7l4.4,6l4.2-6h3.4l-5.8,7.8l6.9,9h-3.7L31.4,28l-5.2,7.2h-3.5L29.6,26.2z"/>
	<path class="st0" d="M52.7,20.8h-5v8.4c0,0.6,0,1.1,0,1.5c0,0.5,0.1,0.9,0.3,1.2c0.2,0.3,0.4,0.6,0.8,0.8c0.3,0.2,0.8,0.3,1.4,0.3
		c0.4,0,0.8,0,1.3-0.1c0.4-0.1,0.8-0.2,1.2-0.4l0.1,2.5c-0.5,0.2-1,0.4-1.6,0.5c-0.6,0.1-1.1,0.1-1.7,0.1c-1,0-1.8-0.1-2.4-0.4
		c-0.6-0.3-1.1-0.6-1.4-1.1s-0.6-1.1-0.7-1.8C45,31.6,45,30.9,45,30v-9.2h-3.7v-2.4H45v-4.8h2.8v4.8h5V20.8z"/>
	<path class="st0" d="M71.5,32.1c-1,1.3-2.1,2.2-3.3,2.7c-1.2,0.5-2.6,0.8-4.2,0.8c-1.3,0-2.5-0.2-3.6-0.7c-1.1-0.5-1.9-1.1-2.7-1.9
		c-0.7-0.8-1.3-1.7-1.7-2.8c-0.4-1.1-0.6-2.2-0.6-3.4c0-1.3,0.2-2.5,0.6-3.6c0.4-1.1,1-2,1.8-2.8c0.8-0.8,1.7-1.4,2.7-1.8
		c1.1-0.4,2.2-0.6,3.4-0.6c1.2,0,2.2,0.2,3.2,0.6c1,0.4,1.8,1,2.5,1.7c0.7,0.8,1.2,1.7,1.6,2.8c0.4,1.1,0.6,2.3,0.6,3.7v0.9H58.6
		c0,0.7,0.2,1.4,0.5,2.1c0.3,0.7,0.7,1.2,1.2,1.7c0.5,0.5,1,0.9,1.7,1.2c0.6,0.3,1.4,0.4,2.1,0.4c1.2,0,2.2-0.2,3.1-0.6
		c0.8-0.4,1.6-1.1,2.3-1.9L71.5,32.1z M69.1,25.3c0-1.4-0.5-2.6-1.4-3.4c-0.9-0.9-2.1-1.3-3.7-1.3c-1.6,0-2.8,0.4-3.8,1.3
		c-1,0.9-1.5,2-1.7,3.4H69.1z"/>
	<path class="st0" d="M76.8,22.4c0-0.8,0-1.5-0.1-2.2c0-0.7-0.1-1.3-0.1-1.8h2.7c0,0.5,0,0.9,0,1.4c0,0.5,0,0.9,0,1.4h0.1
		c0.2-0.4,0.5-0.8,0.8-1.2c0.3-0.4,0.8-0.7,1.2-1c0.5-0.3,1-0.5,1.6-0.7c0.6-0.2,1.2-0.3,1.9-0.3c0.2,0,0.4,0,0.6,0s0.4,0.1,0.6,0.1
		L86.1,21c-0.5-0.1-1-0.2-1.5-0.2c-1.7,0-3,0.6-3.7,1.7c-0.8,1.1-1.2,2.6-1.2,4.6v8.2h-2.8V22.4z"/>
	<path class="st0" d="M89.8,22.4c0-0.8,0-1.5-0.1-2.2c0-0.7-0.1-1.3-0.1-1.8h2.7c0,0.5,0,0.9,0,1.4c0,0.5,0,0.9,0,1.4h0.1
		c0.2-0.4,0.5-0.8,0.8-1.2c0.3-0.4,0.8-0.7,1.2-1c0.5-0.3,1-0.5,1.6-0.7c0.6-0.2,1.2-0.3,1.9-0.3c1.1,0,2.1,0.2,2.9,0.5
		c0.8,0.3,1.5,0.8,2,1.4c0.5,0.6,0.9,1.3,1.2,2.2c0.3,0.8,0.4,1.8,0.4,2.8v10.4h-2.8V25.1c0-1.4-0.3-2.5-0.9-3.3
		c-0.6-0.8-1.6-1.2-2.9-1.2c-0.9,0-1.7,0.2-2.4,0.5c-0.7,0.3-1.2,0.8-1.6,1.3c-0.4,0.6-0.7,1.3-0.9,2s-0.3,1.7-0.3,2.6v8.2h-2.8
		V22.4z"/>
	<path class="st0" d="M109.9,20.6c0.9-0.9,1.9-1.5,3.1-2c1.2-0.4,2.4-0.6,3.6-0.6c2.5,0,4.3,0.6,5.4,1.8c1.1,1.2,1.7,3,1.7,5.3v7.2
		c0,0.5,0,1,0.1,1.5s0.1,1,0.2,1.4h-2.7c-0.1-0.4-0.1-0.8-0.2-1.3c0-0.5,0-0.9,0-1.2h-0.1c-0.6,0.9-1.3,1.6-2.2,2.1
		c-0.9,0.5-2,0.8-3.3,0.8c-0.9,0-1.7-0.1-2.4-0.3c-0.8-0.2-1.4-0.5-2-1c-0.6-0.4-1-0.9-1.3-1.6c-0.3-0.6-0.5-1.3-0.5-2.2
		c0-1.4,0.4-2.5,1.1-3.3c0.7-0.8,1.6-1.4,2.7-1.8c1.1-0.4,2.2-0.6,3.4-0.7c1.2-0.1,2.4-0.1,3.4-0.1h1.1v-0.5c0-1.2-0.4-2.1-1.1-2.8
		c-0.7-0.6-1.8-0.9-3.1-0.9c-0.9,0-1.8,0.1-2.7,0.4c-0.9,0.3-1.6,0.8-2.3,1.4L109.9,20.6z M118,27.1c-1.8,0-3.2,0.3-4.3,0.8
		c-1.1,0.5-1.6,1.3-1.6,2.5c0,1.1,0.4,1.8,1.1,2.2c0.7,0.4,1.6,0.7,2.6,0.7c0.8,0,1.5-0.1,2.1-0.4c0.6-0.3,1.1-0.6,1.5-1.1
		c0.4-0.5,0.7-1,0.9-1.6c0.2-0.6,0.3-1.3,0.4-2v-1.1H118z"/>
	<path class="st0" d="M129.4,8.1h2.8v27.1h-2.8V8.1z"/>
	<path class="st0" d="M146.8,9.8h2.8l10.8,25.4H157l-2.6-6.2h-12.7l-2.6,6.2h-3.4L146.8,9.8z M148.2,13.7L148.2,13.7l-5.3,12.5h10.4
		L148.2,13.7z"/>
	<path class="st0" d="M163.6,18.4h2.8v2.4h0.1c0.8-0.9,1.7-1.6,2.7-2.1c1-0.5,2.1-0.8,3.4-0.8c1.3,0,2.5,0.2,3.6,0.7
		c1.1,0.4,2,1.1,2.8,1.8s1.4,1.7,1.8,2.8c0.4,1.1,0.6,2.2,0.6,3.5c0,1.3-0.2,2.4-0.6,3.5c-0.4,1.1-1,2-1.8,2.8
		c-0.8,0.8-1.6,1.4-2.7,1.8s-2.1,0.7-3.3,0.7c-1.5,0-2.8-0.3-4-1c-1.1-0.7-2-1.5-2.5-2.4h-0.1v11.2h-2.8V18.4z M166.4,26.8
		c0,0.9,0.1,1.7,0.4,2.5c0.3,0.8,0.7,1.4,1.2,2c0.5,0.6,1.2,1,1.9,1.3c0.7,0.3,1.5,0.5,2.5,0.5s1.7-0.2,2.5-0.5
		c0.7-0.3,1.4-0.8,1.9-1.3c0.5-0.6,0.9-1.2,1.2-2c0.3-0.8,0.4-1.6,0.4-2.5c0-0.9-0.1-1.7-0.4-2.5c-0.3-0.8-0.7-1.4-1.2-2
		c-0.5-0.6-1.2-1-1.9-1.3s-1.5-0.5-2.5-0.5s-1.7,0.2-2.5,0.5s-1.4,0.8-1.9,1.3c-0.5,0.6-0.9,1.2-1.2,2
		C166.5,25.1,166.4,25.9,166.4,26.8z"/>
	<path class="st0" d="M185.8,18.4h2.8v2.4h0.1c0.8-0.9,1.7-1.6,2.7-2.1c1-0.5,2.1-0.8,3.4-0.8c1.3,0,2.5,0.2,3.6,0.7
		c1.1,0.4,2,1.1,2.8,1.8s1.4,1.7,1.8,2.8c0.4,1.1,0.6,2.2,0.6,3.5c0,1.3-0.2,2.4-0.6,3.5c-0.4,1.1-1,2-1.8,2.8
		c-0.8,0.8-1.6,1.4-2.7,1.8s-2.1,0.7-3.3,0.7c-1.5,0-2.8-0.3-4-1c-1.1-0.7-2-1.5-2.5-2.4h-0.1v11.2h-2.8V18.4z M188.6,26.8
		c0,0.9,0.1,1.7,0.4,2.5c0.3,0.8,0.7,1.4,1.2,2c0.5,0.6,1.2,1,1.9,1.3c0.7,0.3,1.5,0.5,2.5,0.5s1.7-0.2,2.5-0.5
		c0.7-0.3,1.4-0.8,1.9-1.3c0.5-0.6,0.9-1.2,1.2-2c0.3-0.8,0.4-1.6,0.4-2.5c0-0.9-0.1-1.7-0.4-2.5c-0.3-0.8-0.7-1.4-1.2-2
		c-0.5-0.6-1.2-1-1.9-1.3s-1.5-0.5-2.5-0.5s-1.7,0.2-2.5,0.5s-1.4,0.8-1.9,1.3c-0.5,0.6-0.9,1.2-1.2,2
		C188.8,25.1,188.6,25.9,188.6,26.8z"/>
</g>
</svg>
